<svg id="SvgjsSvg1001" width="288" height="288" xmlns="http://www.w3.org/2000/svg" version="1.1" xmlns:xlink="http://www.w3.org/1999/xlink" xmlns:svgjs="http://svgjs.com/svgjs"><defs id="SvgjsDefs1002"></defs><g id="SvgjsG1008"><svg xmlns="http://www.w3.org/2000/svg" baseProfile="tiny" version="1.2" viewBox="-63 65 128 128" width="288" height="288"><path d="M-37.4,95.7h28.5v34.1h-28.5V95.7z M2.4,95.7h22.8v5.7H2.4V95.7z M2.4,124.2h22.8v5.7H2.4V124.2z M2.4,109.9h22.8v5.7H2.4
	V109.9z M-37.4,138.6h62.5v5.7h-62.5V138.6z M-37.4,166.4h62.5v5.7h-62.5V166.4z M-37.4,152.1h62.5v5.7h-62.5V152.1z M-39,66.6v10.9
	h-12.6v114.2h92.6v-10.9h12.6V66.6H-39z M35.3,186.1H-46V83.1h7h5.7h68.6v91.9v5.7V186.1z M48,175.1h-7V77.4h-74.3v-5.1H48V175.1z" fill="#adadad" class="color000 svgShape"></path></svg></g></svg>