<svg id="SvgjsSvg1001" width="288" height="288" xmlns="http://www.w3.org/2000/svg" version="1.1" xmlns:xlink="http://www.w3.org/1999/xlink" xmlns:svgjs="http://svgjs.com/svgjs"><defs id="SvgjsDefs1002"></defs><g id="SvgjsG1008"><svg xmlns="http://www.w3.org/2000/svg" enable-background="new 0 0 57 57" viewBox="0 0 57 57" width="288" height="288"><path d="M52.699 45.02c-.55-.101-1.069.241-1.18.781C50.403 51.303 46.074 55 40.749 55c-5.028 0-9.446-3.3-10.948-8H34.5v-2h-8v8h2v-3.849C30.669 53.833 35.415 57 40.749 57c6.304 0 11.42-4.341 12.731-10.801C53.59 45.657 53.24 45.13 52.699 45.02zM52.5 37.309C50.25 32.854 45.796 30 40.749 30c-6.109 0-11.541 3.997-13.209 9.721-.154.53.15 1.085.681 1.239.529.158 1.085-.15 1.239-.681C30.858 35.482 35.605 32 40.749 32c4.565 0 8.562 2.766 10.33 7H46.5v2h8v-8h-2V37.309zM28.5 14h18c.553 0 1-.447 1-1s-.447-1-1-1h-18c-.553 0-1 .447-1 1S27.947 14 28.5 14zM28.5 28h18c.553 0 1-.447 1-1s-.447-1-1-1h-18c-.553 0-1 .447-1 1S27.947 28 28.5 28zM22.079 7.241c-.418-.358-1.05-.313-1.409.108l-6.248 7.288L10.6 11.771c-.441-.331-1.068-.243-1.399.2-.332.441-.242 1.068.2 1.399l4.571 3.429c.179.135.39.2.599.2.283 0 .563-.119.76-.35l6.857-8C22.548 8.231 22.499 7.601 22.079 7.241zM22.079 21.241c-.418-.359-1.05-.312-1.409.108l-6.248 7.288L10.6 25.771c-.441-.331-1.068-.243-1.399.2-.332.441-.242 1.068.2 1.399l4.571 3.429c.179.135.39.2.599.2.283 0 .563-.119.76-.35l6.857-8C22.548 22.231 22.499 21.601 22.079 21.241zM20.67 36.35l-6.248 7.287L10.6 40.771c-.441-.33-1.068-.243-1.399.2-.332.441-.242 1.068.2 1.399l4.571 3.429c.179.135.39.2.599.2.283 0 .563-.119.76-.35l6.857-7.999c.36-.419.312-1.05-.108-1.409C21.661 35.883 21.029 35.929 20.67 36.35z" fill="#bfbfbf" class="color000 svgShape"></path><path d="M43.324,0H13.676C6.962,0,1.5,5.462,1.5,12.176v29.648C1.5,48.538,6.962,54,13.676,54H22.5c0.553,0,1-0.447,1-1
		s-0.447-1-1-1h-8.824C8.064,52,3.5,47.436,3.5,41.824V12.176C3.5,6.564,8.064,2,13.676,2h29.648C48.936,2,53.5,6.564,53.5,12.176
		V27c0,0.553,0.447,1,1,1s1-0.447,1-1V12.176C55.5,5.462,50.038,0,43.324,0z" fill="#bfbfbf" class="color000 svgShape"></path></svg></g></svg>