<svg id="SvgjsSvg1001" width="288" height="288" xmlns="http://www.w3.org/2000/svg" version="1.1" xmlns:xlink="http://www.w3.org/1999/xlink" xmlns:svgjs="http://svgjs.com/svgjs"><defs id="SvgjsDefs1002"></defs><g id="SvgjsG1008"><svg xmlns="http://www.w3.org/2000/svg" width="288" height="288" viewBox="0 0 30 30"><g transform="translate(15.33 20)" fill="#cacaca" class="color000 svgShape"><polygon points="-2 5 -2 -7 -4 -7 -4 7 4 7 4 5 -2 5" transform="translate(10)" fill="#cacaca" class="color000 svgShape"></polygon><path d="M18 9H14a2 2 0 00-2 2V21a2 2 0 002 2h1v2a2 2 0 002 2h2V25H17V23h1a2 2 0 002-2V11A2 2 0 0018 9zM14 21V11h4V21zM8 23H2V21H8V17H4a2 2 0 01-2-2V11A2 2 0 014 9h6v2H4v4H8a2 2 0 012 2v4A2 2 0 018 23z" transform="translate(-16 -16)" fill="#cacaca" class="color000 svgShape"></path><rect width="32" height="32" x="-16" y="-16" fill="none" rx="0" ry="0"></rect></g><path fill="#cacaca" fill-rule="evenodd" d="M 4 2 V 14.4805 L 12.9146 8.24024 L 4 2 Z M 11.1809 8.24024 L 4.995 12.5684 V 3.91209 L 11.1809 8.24024 Z" transform="translate(-3.17 -1.5)" class="color424242 svgShape"></path></svg></g></svg>