<svg id="SvgjsSvg1001" width="288" height="288" xmlns="http://www.w3.org/2000/svg" version="1.1" xmlns:xlink="http://www.w3.org/1999/xlink" xmlns:svgjs="http://svgjs.com/svgjs"><defs id="SvgjsDefs1002"></defs><g id="SvgjsG1008"><svg xmlns="http://www.w3.org/2000/svg" width="288" height="288" viewBox="0 0 32 32"><polygon points="24 21 24 9 22 9 22 23 30 23 30 21 24 21" fill="#c7c7c7" class="color000 svgShape"></polygon><path d="M18 9H14a2 2 0 00-2 2V21a2 2 0 002 2h1v2a2 2 0 002 2h2V25H17V23h1a2 2 0 002-2V11A2 2 0 0018 9zM14 21V11h4V21zM8 23H2V21H8V17H4a2 2 0 01-2-2V11A2 2 0 014 9h6v2H4v4H8a2 2 0 012 2v4A2 2 0 018 23z" fill="#c7c7c7" class="color000 svgShape"></path><rect width="32" height="32" fill="none" data-name="&amp;lt;Transparent Rectangle&amp;gt;"></rect></svg></g></svg>